<svg width="162" height="121" viewBox="0 0 162 121" fill="none" xmlns="http://www.w3.org/2000/svg">
<g clip-path="url(#clip0)">
<path d="M90.3304 92.378C84.9617 92.378 82.2773 81.5627 79.5929 70.7175C76.9086 59.9022 74.2242 49.057 68.8555 49.057" stroke="#BF9000" stroke-width="0.167698" stroke-miterlimit="10" stroke-linejoin="round"/>
<path d="M27.1351 26.4406C27.1351 21.9292 31.0808 18.2843 35.9644 18.2843C38.293 18.2843 40.557 19.1507 42.2064 20.6744C43.8558 22.1981 44.7937 24.2895 44.7937 26.4406C44.7937 30.952 40.848 34.5969 35.9644 34.5969C31.0808 34.6268 27.1351 30.952 27.1351 26.4406Z" fill="#00B39F"/>
<path d="M0 49.0871C0 44.5757 3.9457 40.9308 8.82931 40.9308C11.1579 40.9308 13.4218 41.7972 15.0713 43.3209C16.7207 44.8446 17.6586 46.936 17.6586 49.0871C17.6586 53.5984 13.7129 57.2434 8.82931 57.2434C3.9457 57.2434 0 53.5984 0 49.0871Z" fill="#00B39F"/>
<path d="M27.1352 26.4408C17.9824 26.4408 8.82971 33.6709 8.82971 40.901" stroke="#359AC0" stroke-width="0.167698" stroke-miterlimit="10" stroke-linejoin="round"/>
<path d="M149.387 29.0698C144.988 27.1278 143.145 22.258 145.247 18.1948C146.249 16.2528 148.061 14.759 150.26 14.012C152.459 13.295 154.885 13.4145 157.019 14.3407C161.418 16.2827 163.261 21.1525 161.159 25.2157C159.024 29.279 153.753 31.0118 149.387 29.0698Z" fill="#00B39F"/>
<path d="M51.1647 49.0871C51.1647 44.5757 55.1104 40.9308 59.994 40.9308C62.3226 40.9308 64.5865 41.7972 66.2359 43.3209C67.8854 44.8446 68.8233 46.936 68.8233 49.0871C68.8233 53.5984 64.8776 57.2434 59.994 57.2434C55.1427 57.2434 51.1647 53.5984 51.1647 49.0871Z" fill="#00B39F"/>
<path d="M27.0378 82.1606C27.0378 77.6492 30.9835 74.0043 35.8671 74.0043C38.1958 74.0043 40.4597 74.8707 42.1091 76.3944C43.7585 77.9181 44.6965 80.0095 44.6965 82.1606C44.6965 86.6719 40.7508 90.3169 35.8671 90.3169C30.9835 90.3467 27.0378 86.6719 27.0378 82.1606Z" fill="#00B39F"/>
<path d="M60.0266 57.2432C60.0266 61.4259 54.0111 63.5172 47.9631 65.6086C41.9476 67.6999 35.8997 69.7913 35.8997 73.974" stroke="#359AC0" stroke-width="0.279497" stroke-miterlimit="10" stroke-linejoin="round"/>
<path d="M144.859 24.4091C141.657 24.4091 140.008 25.4547 138.488 26.5303C136.968 27.576 135.545 28.6515 132.601 28.6515" stroke="#359AC0" stroke-width="0.167698" stroke-miterlimit="10" stroke-linejoin="round"/>
<path d="M35.8674 74.0043C35.8674 69.8216 29.108 67.7302 22.3486 65.6389C15.5891 63.5475 8.82971 61.4562 8.82971 57.2734" stroke="#359AC0" stroke-width="0.167698" stroke-miterlimit="10" stroke-linejoin="round"/>
<path d="M60.0264 40.901C60.0264 33.6709 52.4261 26.4408 44.8258 26.4408" stroke="#359AC0" stroke-width="0.167698" stroke-miterlimit="10" stroke-linejoin="round"/>
<path d="M123.804 57.2434C118.921 57.2434 114.975 53.5984 114.975 49.0871C114.975 46.936 115.913 44.8446 117.562 43.3209C119.212 41.7972 121.476 40.9308 123.804 40.9308C128.688 40.9308 132.634 44.5757 132.634 49.0871C132.634 53.5686 128.688 57.2434 123.804 57.2434Z" fill="#00B39F"/>
<path d="M99.6452 36.7779C94.7616 36.7779 90.8159 33.133 90.8159 28.6216C90.8159 26.4705 91.7538 24.3792 93.4033 22.8555C95.0527 21.3318 97.3166 20.4653 99.6452 20.4653C104.529 20.4653 108.475 24.1103 108.475 28.6216C108.507 33.133 104.529 36.7779 99.6452 36.7779Z" fill="#00B39F"/>
<path d="M123.804 36.7779C118.921 36.7779 114.975 33.133 114.975 28.6216C114.975 26.4705 115.913 24.3792 117.562 22.8555C119.212 21.3318 121.476 20.4653 123.804 20.4653C128.688 20.4653 132.634 24.1103 132.634 28.6216C132.634 33.133 128.688 36.7779 123.804 36.7779Z" fill="#00B39F"/>
<path d="M114.943 49.0575C113.326 49.0575 112.517 43.9486 111.709 38.8397C110.9 33.7308 110.092 28.6219 108.475 28.6219" stroke="#359AC0" stroke-width="0.167698" stroke-miterlimit="10" stroke-linejoin="round"/>
<path d="M108.507 28.6219C110.124 28.6219 110.932 28.6518 111.709 28.6817C112.517 28.7116 113.326 28.7415 114.943 28.7415" stroke="#359AC0" stroke-width="0.167698" stroke-miterlimit="10" stroke-linejoin="round"/>
<path d="M123.805 40.9008C123.805 39.885 123.837 39.3472 123.869 38.8393C123.902 38.3314 123.934 37.7936 123.934 36.7778" stroke="#359AC0" stroke-width="0.167698" stroke-miterlimit="10" stroke-linejoin="round"/>
<path d="M90.8158 28.6219C85.3177 28.6219 82.5686 33.7308 79.8196 38.8397C77.0705 43.9486 74.3215 49.0575 68.8234 49.0575" stroke="#359AC0" stroke-width="0.279497" stroke-miterlimit="10" stroke-linejoin="round"/>
<path d="M123.804 16.3126C118.921 16.3126 114.975 12.6677 114.975 8.1563C114.975 6.00518 115.913 3.91383 117.562 2.39012C119.212 0.86642 121.476 0 123.804 0C128.688 0 132.634 3.64494 132.634 8.1563C132.634 12.6677 128.688 16.3126 123.804 16.3126Z" fill="#00B39F"/>
<path d="M123.805 20.4656C123.805 19.4498 123.837 18.912 123.869 18.4041C123.902 17.8962 123.934 17.3585 123.934 16.3427" stroke="#359AC0" stroke-width="0.167698" stroke-miterlimit="10" stroke-linejoin="round"/>
<path d="M108.507 28.6217C110.124 28.6217 110.932 23.5128 111.741 18.4039C112.549 13.295 113.358 8.18616 114.975 8.18616" stroke="#359AC0" stroke-width="0.279497" stroke-miterlimit="10" stroke-linejoin="round"/>
<path d="M123.287 121C118.403 121 114.458 117.355 114.458 112.844C114.458 110.693 115.395 108.601 117.045 107.078C118.694 105.554 120.958 104.688 123.287 104.688C128.17 104.688 132.116 108.333 132.116 112.844C132.116 117.355 128.17 121 123.287 121Z" fill="#00B39F"/>
<path d="M99.16 100.535C94.2764 100.535 90.3307 96.8898 90.3307 92.3785C90.3307 90.2274 91.2686 88.136 92.918 86.6123C94.5675 85.0886 96.8314 84.2222 99.16 84.2222C104.044 84.2222 107.989 87.8671 107.989 92.3785C107.989 96.8898 104.044 100.535 99.16 100.535Z" fill="#00B39F"/>
<path d="M123.287 100.535C118.403 100.535 114.458 96.8898 114.458 92.3785C114.458 90.2274 115.395 88.136 117.045 86.6123C118.694 85.0886 120.958 84.2222 123.287 84.2222C128.17 84.2222 132.116 87.8671 132.116 92.3785C132.116 96.8898 128.17 100.535 123.287 100.535Z" fill="#00B39F"/>
<path d="M114.458 112.844C112.84 112.844 112.032 107.735 111.256 102.626C110.447 97.5172 109.639 92.4083 108.021 92.4083" stroke="#CD502F" stroke-width="0.167698" stroke-miterlimit="10" stroke-linejoin="round"/>
<path d="M107.989 92.3781C109.606 92.3781 110.415 92.4079 111.191 92.4378C112 92.4677 112.808 92.4976 114.425 92.4976" stroke="#CD502F" stroke-width="0.167698" stroke-miterlimit="10" stroke-linejoin="round"/>
<path d="M123.287 104.687C123.287 103.671 123.319 103.134 123.352 102.626C123.384 102.118 123.416 101.58 123.416 100.564" stroke="#CD502F" stroke-width="0.167698" stroke-miterlimit="10" stroke-linejoin="round"/>
<path d="M123.319 80.099C118.435 80.099 114.49 76.454 114.49 71.9427C114.49 69.7916 115.428 67.7002 117.077 66.1765C118.726 64.6528 120.99 63.7864 123.319 63.7864C128.203 63.7864 132.148 67.4313 132.148 71.9427C132.148 76.454 128.203 80.099 123.319 80.099Z" fill="#00B39F"/>
<path d="M123.287 84.2218C123.287 83.206 123.319 82.6683 123.352 82.1604C123.384 81.6525 123.416 81.1147 123.416 80.0989" stroke="#BF9000" stroke-width="0.167698" stroke-miterlimit="10" stroke-linejoin="round"/>
<path d="M107.989 92.3778C109.606 92.3778 110.415 87.2689 111.223 82.16C112.032 77.0512 112.841 71.9423 114.458 71.9423" stroke="#BF9000" stroke-width="0.167698" stroke-miterlimit="10" stroke-linejoin="round"/>
</g>
<defs>
<clipPath id="clip0">
<rect width="162" height="121" fill="white"/>
</clipPath>
</defs>
</svg>
